<?xml version="1.0" encoding="UTF-8" standalone="no"?>
<svg
   version="1.0"
   width="579pt"
   height="363pt"
   viewBox="0 0 579 363"
   preserveAspectRatio="xMidYMid"
   id="svg20"
   sodipodi:docname="ciim.svg"
   inkscape:version="0.92.2 (5c3e80d, 2017-08-06)"
   xmlns:inkscape="http://www.inkscape.org/namespaces/inkscape"
   xmlns:sodipodi="http://sodipodi.sourceforge.net/DTD/sodipodi-0.dtd"
   xmlns="http://www.w3.org/2000/svg"
   xmlns:svg="http://www.w3.org/2000/svg"
   xmlns:rdf="http://www.w3.org/1999/02/22-rdf-syntax-ns#"
   xmlns:cc="http://creativecommons.org/ns#"
   xmlns:dc="http://purl.org/dc/elements/1.1/">
  <defs
     id="defs24" />
  <sodipodi:namedview
     pagecolor="#ffffff"
     bordercolor="#000000"
     borderopacity="1"
     objecttolerance="10"
     gridtolerance="10"
     guidetolerance="10"
     inkscape:pageopacity="0"
     inkscape:pageshadow="2"
     inkscape:window-width="1920"
     inkscape:window-height="1057"
     id="namedview22"
     showgrid="false"
     inkscape:zoom="1.2676629"
     inkscape:cx="319.44316"
     inkscape:cy="268.05084"
     inkscape:window-x="-8"
     inkscape:window-y="-8"
     inkscape:window-maximized="1"
     inkscape:current-layer="g18"
     inkscape:showpageshadow="2"
     inkscape:pagecheckerboard="0"
     inkscape:deskcolor="#d1d1d1"
     inkscape:document-units="pt">
    <inkscape:page
       x="0"
       y="0"
       width="579"
       height="363"
       id="page2"
       margin="0"
       bleed="0" />
  </sodipodi:namedview>
  <metadata
     id="metadata2">
Created by potrace 1.14, written by Peter Selinger 2001-2017
<rdf:RDF>
  <cc:Work
     rdf:about="">
    <dc:format>image/svg+xml</dc:format>
    <dc:type
       rdf:resource="http://purl.org/dc/dcmitype/StillImage" />
    <dc:title />
  </cc:Work>
</rdf:RDF>
</metadata>
  <g
     transform="matrix(0.1,0,0,-0.1,0,363)"
     fill="#000000"
     stroke="none"
     id="g18">
    <path
       style="fill:#ffffff;fill-opacity:1"
       id="path8"
       d="m 2255,2414 c -172,-42 -338,-176 -413,-334 -52,-109 -66,-173 -65,-290 3,-274 176,-502 453,-596 43,-15 83,-19 180,-18 112,0 133,3 200,28 78,30 191,97 224,135 l 20,22 -115,115 -115,115 -58,-35 c -154,-93 -348,-42 -422,111 -23,46 -28,69 -28,132 1,86 21,144 72,202 88,101 279,120 391,39 l 38,-28 117,117 118,118 -48,42 c -56,49 -165,105 -249,126 -74,19 -220,18 -300,-1 z" />
    <path
       style="fill:#ffffff;fill-opacity:1"
       id="path10"
       d="m 3110,1800 v -630 h 165 165 v 630 630 h -165 -165 z" />
    <path
       style="fill:#ffffff;fill-opacity:1"
       id="path12"
       d="m 3690,1800 v -630 h 165 165 v 630 630 h -165 -165 z" />
    <path
       style="fill:#ffffff;fill-opacity:1"
       id="path14"
       d="m 4270,1800 v -630 h 165 165 v 320 321 l 161,-146 c 88,-80 165,-145 170,-145 6,0 81,65 167,144 l 157,144 3,-319 2,-319 h 165 165 v 630 630 l -77,-1 h -78 l -250,-230 c -137,-126 -252,-229 -255,-229 -3,0 -117,104 -255,230 l -250,229 -77,1 h -78 z" />
    <path
       style="fill:#ffffff;fill-opacity:1"
       id="path4"
       d="M 1085,3366 805,3202 v -332 -331 l 284,-165 c 156,-91 290,-164 296,-162 6,2 136,75 288,163 l 277,159 v 336 335 l -276,159 c -152,87 -284,160 -293,162 -9,1 -142,-71 -296,-160 z m 401,-213 c 67,-23 154,-110 177,-177 21,-63 22,-149 1,-210 -22,-64 -100,-148 -165,-176 -74,-31 -169,-31 -240,2 -78,36 -114,71 -150,144 -82,165 -4,358 168,420 53,18 150,17 209,-3 z" />
    <path
       style="fill:#ffffff;fill-opacity:1"
       id="path6"
       d="M 485,2315 205,2153 v -338 -338 l 283,-163 283,-164 262,152 c 144,83 274,160 290,170 l 27,19 v 324 324 l -27,19 c -32,22 -551,322 -555,321 -2,0 -129,-74 -283,-164 z m 420,-229 c 105,-52 165,-150 165,-271 0,-122 -60,-219 -168,-272 -47,-23 -70,-28 -132,-28 -125,1 -214,56 -270,167 -54,109 -37,239 44,335 84,100 237,129 361,69 z" />
    <path
       style="fill:#ffffff;fill-opacity:1"
       id="path16"
       d="M 1085,1255 805,1091 V 760 428 l 284,-165 c 162,-94 290,-162 299,-158 8,3 137,76 288,163 l 274,157 v 335 335 l -277,160 c -152,88 -284,161 -292,162 -9,1 -142,-72 -296,-162 z m 418,-218 c 60,-25 139,-110 161,-173 39,-115 12,-229 -73,-315 -72,-71 -132,-94 -235,-87 -116,8 -197,61 -247,164 -26,53 -32,76 -32,133 0,114 56,213 152,264 90,49 180,54 274,14 z" />
  </g>
</svg>
