<?xml version="1.0" encoding="UTF-8" standalone="no"?>
<svg
   version="1.0"
   width="538.5pt"
   height="342.1178pt"
   viewBox="0 0 538.5 342.1178"
   preserveAspectRatio="xMidYMid"
   id="svg20"
   xmlns="http://www.w3.org/2000/svg"
   xmlns:svg="http://www.w3.org/2000/svg"
   xmlns:rdf="http://www.w3.org/1999/02/22-rdf-syntax-ns#"
   xmlns:cc="http://creativecommons.org/ns#"
   xmlns:dc="http://purl.org/dc/elements/1.1/">
  <defs
     id="defs24" />
  <metadata
     id="metadata2">
Created by potrace 1.14, written by Peter Selinger 2001-2017
<rdf:RDF>
  <cc:Work
     rdf:about="">
    <dc:format>image/svg+xml</dc:format>
    <dc:type
       rdf:resource="http://purl.org/dc/dcmitype/StillImage" />
    <dc:title />
  </cc:Work>
</rdf:RDF>
</metadata>
  <path
     style="fill:#000061;fill-opacity:1;stroke-width:0.1"
     id="path8"
     d="m 205,111.20103 c -17.2,4.2 -33.8,17.6 -41.3,33.4 -5.2,10.9 -6.6,17.3 -6.5,29 0.3,27.4 17.6,50.2 45.3,59.6 4.3,1.5 8.3,1.9 18,1.8 11.2,0 13.3,-0.3 20,-2.8 7.8,-3 19.1,-9.7 22.4,-13.5 l 2,-2.2 -11.5,-11.5 -11.5,-11.5 -5.8,3.5 c -15.4,9.3 -34.8,4.2 -42.2,-11.1 -2.3,-4.6 -2.8,-6.9 -2.8,-13.2 0.1,-8.6 2.1,-14.4 7.2,-20.2 8.8,-10.1 27.9,-12 39.1,-3.9 l 3.8,2.8 11.7,-11.7 11.8,-11.8 -4.8,-4.2 c -5.6,-4.9 -16.5,-10.5 -24.9,-12.6 -7.4,-1.9 -22,-1.8 -30,0.1 z" />
  <path
     style="fill:#000061;fill-opacity:1;stroke-width:0.1"
     id="path10"
     d="m 290.5,172.60103 v 63 h 16.5 16.5 v -63 -63 H 307 290.5 Z" />
  <path
     style="fill:#000061;fill-opacity:1;stroke-width:0.1"
     id="path12"
     d="m 348.5,172.60103 v 63 h 16.5 16.5 v -63 -63 H 365 348.5 Z" />
  <path
     style="fill:#000061;fill-opacity:1;stroke-width:0.1"
     id="path14"
     d="m 406.5,172.60103 v 63 h 16.5 16.5 v -32 -32.1 l 16.1,14.6 c 8.8,8 16.5,14.5 17,14.5 0.6,0 8.1,-6.5 16.7,-14.4 l 15.7,-14.4 0.3,31.9 0.2,31.9 h 16.5 16.5 v -63 -63 l -7.7,0.1 H 523 l -25,23 c -13.7,12.6 -25.2,22.9 -25.5,22.9 -0.3,0 -11.7,-10.4 -25.5,-23 l -25,-22.9 -7.7,-0.1 h -7.8 z" />
  <path
     style="fill:#46baae;fill-opacity:1;stroke-width:0.1"
     id="path4"
     d="m 88,16.001029 -28,16.4 v 33.2 33.1 l 28.4,16.500001 c 15.6,9.1 29,16.4 29.6,16.2 0.6,-0.2 13.6,-7.5 28.8,-16.3 l 27.7,-15.900001 v -33.6 -33.5 l -27.6,-15.9 C 131.7,7.5010292 118.5,0.20102923 117.6,0.00102923 c -0.9,-0.1 -14.2,7.09999997 -29.6,15.99999977 z m 40.1,21.3 c 6.7,2.3 15.4,11 17.7,17.7 2.1,6.3 2.2,14.9 0.1,21 -2.2,6.4 -10,14.8 -16.5,17.6 -7.4,3.1 -16.9,3.1 -24,-0.2 -7.8,-3.6 -11.4,-7.1 -15,-14.4 -8.2,-16.5 -0.4,-35.8 16.8,-42 5.3,-1.8 15,-1.7 20.9,0.3 z" />
  <path
     style="fill:#46baae;fill-opacity:1;stroke-width:0.1"
     id="path6"
     d="m 28,121.10103 -28,16.2 v 33.8 33.8 l 28.3,16.3 28.3,16.4 26.2,-15.2 c 14.4,-8.3 27.4,-16 29,-17 l 2.7,-1.9 v -32.4 -32.4 l -2.7,-1.9 c -3.2,-2.2 -55.1,-32.2 -55.5,-32.1 -0.2,0 -12.9,7.4 -28.3,16.4 z m 42,22.9 c 10.5,5.2 16.5,15 16.5,27.1 0,12.2 -6,21.9 -16.8,27.2 -4.7,2.3 -7,2.8 -13.2,2.8 -12.5,-0.1 -21.4,-5.6 -27,-16.7 -5.4,-10.9 -3.7,-23.9 4.4,-33.5 8.4,-10 23.7,-12.9 36.1,-6.9 z" />
  <path
     style="fill:#46baae;fill-opacity:1;stroke-width:0.1"
     id="path16"
     d="m 88,227.10103 -28,16.4 v 33.1 33.2 l 28.4,16.5 c 16.2,9.4 29,16.2 29.9,15.8 0.8,-0.3 13.7,-7.6 28.8,-16.3 l 27.4,-15.7 v -33.5 -33.5 l -27.7,-16 c -15.2,-8.8 -28.4,-16.1 -29.2,-16.2 -0.9,-0.1 -14.2,7.2 -29.6,16.2 z m 41.8,21.8 c 6,2.5 13.9,11 16.1,17.3 3.9,11.5 1.2,22.9 -7.3,31.5 -7.2,7.1 -13.2,9.4 -23.5,8.7 -11.6,-0.8 -19.7,-6.1 -24.7,-16.4 -2.6,-5.3 -3.2,-7.6 -3.2,-13.3 0,-11.4 5.6,-21.3 15.2,-26.4 9,-4.9 18,-5.4 27.4,-1.4 z" />
</svg>
